<svg xmlns="http://www.w3.org/2000/svg" width="212" height="60" viewBox="0 0 212 60">
    <g fill="#159D8F" fill-rule="evenodd">
        <path stroke="#159D8F" d="M44.998 45V30h15v15.938C59.998 53.704 53.702 60 45.935 60h-.937v-.028H15V60h-.938C6.296 60 0 53.704 0 45.938V45h.028V15.05H0v-.937C0 6.346 6.296.051 14.063.051h15.936v15H15V45h29.998zm15-44.95v24.376H41.796l-14.974 8.63 8.8-15.27V.05h24.376z"/>
        <path d="M82.888 29.555c0-4.061-2.59-6.891-5.768-6.891-3.179 0-5.768 2.83-5.768 6.891 0 3.97 2.59 6.709 5.768 6.709 3.179 0 5.768-2.738 5.768-6.709zm6.04-.045c0 7.027-5.314 12.276-11.808 12.276s-11.763-5.25-11.763-12.276c0-7.028 5.27-12.367 11.763-12.367 6.494 0 11.809 5.34 11.809 12.367zM108.602 29.555c0-4.061-2.588-6.891-5.768-6.891-3.18 0-5.767 2.83-5.767 6.891 0 3.97 2.588 6.709 5.767 6.709 3.18 0 5.768-2.738 5.768-6.709zm6.04-.045c0 7.027-5.313 12.276-11.808 12.276-6.494 0-11.763-5.25-11.763-12.276 0-7.028 5.269-12.367 11.763-12.367 6.495 0 11.809 5.34 11.809 12.367zM128.532 41.786h-6.304l-8.657-23.572h6.128l5.681 17.576 5.727-17.576h6.036l-8.611 23.572M154.246 41.786h-6.303l-8.657-23.572h6.126l5.682 17.576 5.727-17.576h6.036l-8.611 23.572M175.645 41.786c-6.694 0-10.645-4.25-10.645-10.287V18.214h6.135v13.464c0 1.296.466 4.383 4.51 4.383 2.695 0 4.648-1.835 4.648-4.383V18.214h6.136V31.5c0 5.858-4.278 10.287-10.784 10.287M200.287 41.786c-6.692 0-10.644-4.25-10.644-10.287V18.214h6.136v13.464c0 1.296.465 4.383 4.508 4.383 2.697 0 4.649-1.835 4.649-4.383V18.214h6.135V31.5c0 5.858-4.277 10.287-10.784 10.287"/>
    </g>
</svg>
