<svg xmlns="http://www.w3.org/2000/svg" xmlns:xlink="http://www.w3.org/1999/xlink" width="24pt" height="24pt" viewBox="0 0 24 24" class="oovvuu-small-logo">
	<g id="surface1">
		<path d="M 12 0 L 12 6.003906 L 6 6.003906 L 6 17.996094 L 18 17.996094 L 18 23.988281 L 6 23.988281 L 6 24 L 5.625 24 C 2.519531 24 0 21.480469 0 18.371094 L 0 17.996094 L 0.0117188 17.996094 L 0.0117188 6.003906 L 0 6.003906 L 0 5.628906 C 0 2.519531 2.519531 0 5.625 0 Z M 18 17.996094 L 18 11.988281 L 24 11.988281 L 24 18.371094 C 24 21.480469 21.480469 24 18.375 24 L 18 24 Z M 24 0 L 24 9.757812 L 16.71875 9.757812 L 10.730469 13.214844 L 14.25 7.101562 L 14.25 0 Z M 24 0 "/>
	</g>
</svg>
